<svg width="381" height="39" viewBox="0 0 381 39" fill="none" xmlns="http://www.w3.org/2000/svg">
<g filter="url(#filter0_i_1046_67)">
<path d="M2.639e-05 36.9034V25.5824H1.94605C2.59946 25.0615 3.21025 24.3276 3.77844 23.3807C4.34662 22.4337 4.82957 21.1364 5.2273 19.4886C5.62503 17.8409 5.89965 15.7102 6.05116 13.0966L6.81821 0.795443H25.412V25.5824H28.6506V36.875H23.5938V29.8864H5.05684V36.9034H2.639e-05ZM8.08241 25.5824H20.3551V5.21306H11.5625L11.108 13.0966C10.9849 15.0757 10.786 16.8466 10.5114 18.4091C10.2368 19.9716 9.89113 21.3494 9.47446 22.5426C9.05779 23.7263 8.59378 24.7396 8.08241 25.5824ZM41.6337 30.3125C39.503 30.3125 37.6564 29.8437 36.0939 28.9062C34.5314 27.9687 33.3193 26.6572 32.4576 24.9716C31.6053 23.286 31.1791 21.3163 31.1791 19.0625C31.1791 16.8087 31.6053 14.8343 32.4576 13.1392C33.3193 11.4441 34.5314 10.1278 36.0939 9.19033C37.6564 8.25283 39.503 7.78408 41.6337 7.78408C43.7644 7.78408 45.611 8.25283 47.1735 9.19033C48.736 10.1278 49.9434 11.4441 50.7956 13.1392C51.6574 14.8343 52.0882 16.8087 52.0882 19.0625C52.0882 21.3163 51.6574 23.286 50.7956 24.9716C49.9434 26.6572 48.736 27.9687 47.1735 28.9062C45.611 29.8437 43.7644 30.3125 41.6337 30.3125ZM41.6621 26.1932C42.8174 26.1932 43.7833 25.8759 44.5598 25.2415C45.3363 24.5975 45.914 23.7358 46.2928 22.6562C46.681 21.5767 46.8752 20.374 46.8752 19.0483C46.8752 17.7131 46.681 16.5057 46.2928 15.4261C45.914 14.3371 45.3363 13.4706 44.5598 12.8267C43.7833 12.1828 42.8174 11.8608 41.6621 11.8608C40.4784 11.8608 39.4935 12.1828 38.7076 12.8267C37.931 13.4706 37.3487 14.3371 36.9604 15.4261C36.5816 16.5057 36.3922 17.7131 36.3922 19.0483C36.3922 20.374 36.5816 21.5767 36.9604 22.6562C37.3487 23.7358 37.931 24.5975 38.7076 25.2415C39.4935 25.8759 40.4784 26.1932 41.6621 26.1932ZM73.3384 -1.23978e-05L75.1282 3.32385C74.4937 3.87309 73.7835 4.27082 72.9975 4.51703C72.2115 4.76325 71.2882 4.92423 70.2276 4.99999C69.1764 5.06628 67.9264 5.11362 66.4776 5.14203C64.8488 5.17991 63.5183 5.48768 62.4861 6.06533C61.4539 6.64298 60.6632 7.51893 60.1139 8.69317C59.5647 9.85794 59.2049 11.3447 59.0344 13.1534H59.2759C59.9577 11.8182 60.9141 10.8002 62.1452 10.0994C63.3763 9.39866 64.8204 9.04828 66.4776 9.04828C68.2863 9.04828 69.8819 9.45548 71.2645 10.2699C72.6566 11.0748 73.7408 12.2443 74.5174 13.7784C75.3033 15.3125 75.6963 17.1685 75.6963 19.3466C75.6963 21.5909 75.2749 23.5369 74.4321 25.1846C73.5893 26.8229 72.3914 28.0871 70.8384 28.9773C69.2948 29.8674 67.4624 30.3125 65.3412 30.3125C63.2295 30.3125 61.3924 29.8532 59.8299 28.9346C58.2768 28.0066 57.0742 26.6382 56.2219 24.8295C55.3791 23.0114 54.9577 20.7718 54.9577 18.1108V16.1506C54.9577 11.018 55.9141 7.18749 57.827 4.65908C59.7399 2.13067 62.5761 0.842791 66.3355 0.795443C67.453 0.776503 68.452 0.771768 69.3327 0.781238C70.2228 0.790708 70.9994 0.748094 71.6622 0.653398C72.3251 0.558701 72.8838 0.340898 73.3384 -1.23978e-05ZM65.3696 26.1932C66.4208 26.1932 67.3299 25.9233 68.0969 25.3835C68.8639 24.8343 69.4511 24.0578 69.8583 23.054C70.2749 22.0502 70.4833 20.8617 70.4833 19.4886C70.4833 18.1345 70.2749 16.9839 69.8583 16.0369C69.4416 15.0805 68.8497 14.3513 68.0827 13.8494C67.3157 13.3475 66.4018 13.0966 65.3412 13.0966C64.5458 13.0966 63.8308 13.2386 63.1963 13.5227C62.5619 13.8068 62.0221 14.2235 61.577 14.7727C61.1319 15.322 60.791 15.9896 60.5543 16.7756C60.3175 17.5615 60.1897 18.4659 60.1708 19.4886C60.1708 21.5435 60.6348 23.1771 61.5628 24.3892C62.4908 25.5918 63.7598 26.1932 65.3696 26.1932ZM79.4713 38.0682V8.06817H84.5281V11.6761H84.8264C85.0916 11.1458 85.4656 10.5824 85.9486 9.98578C86.4316 9.37972 87.085 8.86362 87.9088 8.43749C88.7327 8.00188 89.7838 7.78408 91.0622 7.78408C92.7478 7.78408 94.2677 8.21495 95.6219 9.07669C96.9855 9.92897 98.0651 11.1932 98.8605 12.8693C99.6655 14.536 100.068 16.5814 100.068 19.0057C100.068 21.4015 99.6749 23.4375 98.8889 25.1136C98.103 26.7898 97.0329 28.0682 95.6787 28.9489C94.3246 29.8295 92.7905 30.2699 91.0764 30.2699C89.8264 30.2699 88.7895 30.0615 87.9656 29.6449C87.1418 29.2282 86.4789 28.7263 85.977 28.1392C85.4846 27.5426 85.1011 26.9792 84.8264 26.4489H84.6134V38.0682H79.4713ZM84.5139 18.9773C84.5139 20.3882 84.7128 21.624 85.1105 22.6846C85.5177 23.7453 86.1001 24.5739 86.8577 25.1704C87.6247 25.7576 88.5528 26.0511 89.6418 26.0511C90.7781 26.0511 91.7299 25.7481 92.4969 25.142C93.2639 24.5265 93.8416 23.6884 94.2299 22.6278C94.6276 21.5578 94.8264 20.3409 94.8264 18.9773C94.8264 17.6231 94.6323 16.4204 94.2441 15.3693C93.8558 14.3182 93.2781 13.4943 92.5111 12.8977C91.7441 12.3011 90.7876 12.0028 89.6418 12.0028C88.5433 12.0028 87.6105 12.2917 86.8435 12.8693C86.0764 13.447 85.4941 14.2566 85.0963 15.2983C84.7081 16.34 84.5139 17.5663 84.5139 18.9773ZM113.388 30.3125C111.258 30.3125 109.411 29.8437 107.849 28.9062C106.286 27.9687 105.074 26.6572 104.212 24.9716C103.36 23.286 102.934 21.3163 102.934 19.0625C102.934 16.8087 103.36 14.8343 104.212 13.1392C105.074 11.4441 106.286 10.1278 107.849 9.19033C109.411 8.25283 111.258 7.78408 113.388 7.78408C115.519 7.78408 117.366 8.25283 118.928 9.19033C120.491 10.1278 121.698 11.4441 122.55 13.1392C123.412 14.8343 123.843 16.8087 123.843 19.0625C123.843 21.3163 123.412 23.286 122.55 24.9716C121.698 26.6572 120.491 27.9687 118.928 28.9062C117.366 29.8437 115.519 30.3125 113.388 30.3125ZM113.417 26.1932C114.572 26.1932 115.538 25.8759 116.315 25.2415C117.091 24.5975 117.669 23.7358 118.047 22.6562C118.436 21.5767 118.63 20.374 118.63 19.0483C118.63 17.7131 118.436 16.5057 118.047 15.4261C117.669 14.3371 117.091 13.4706 116.315 12.8267C115.538 12.1828 114.572 11.8608 113.417 11.8608C112.233 11.8608 111.248 12.1828 110.462 12.8267C109.686 13.4706 109.103 14.3371 108.715 15.4261C108.336 16.5057 108.147 17.7131 108.147 19.0483C108.147 20.374 108.336 21.5767 108.715 22.6562C109.103 23.7358 109.686 24.5975 110.462 25.2415C111.248 25.8759 112.233 26.1932 113.417 26.1932ZM136.929 29.8864V8.06817H155.352V29.8864H150.395V12.2869H141.844V29.8864H136.929ZM169.557 30.3125C167.426 30.3125 165.58 29.8437 164.017 28.9062C162.455 27.9687 161.243 26.6572 160.381 24.9716C159.529 23.286 159.103 21.3163 159.103 19.0625C159.103 16.8087 159.529 14.8343 160.381 13.1392C161.243 11.4441 162.455 10.1278 164.017 9.19033C165.58 8.25283 167.426 7.78408 169.557 7.78408C171.688 7.78408 173.534 8.25283 175.097 9.19033C176.659 10.1278 177.867 11.4441 178.719 13.1392C179.581 14.8343 180.012 16.8087 180.012 19.0625C180.012 21.3163 179.581 23.286 178.719 24.9716C177.867 26.6572 176.659 27.9687 175.097 28.9062C173.534 29.8437 171.688 30.3125 169.557 30.3125ZM169.586 26.1932C170.741 26.1932 171.707 25.8759 172.483 25.2415C173.26 24.5975 173.837 23.7358 174.216 22.6562C174.604 21.5767 174.799 20.374 174.799 19.0483C174.799 17.7131 174.604 16.5057 174.216 15.4261C173.837 14.3371 173.26 13.4706 172.483 12.8267C171.707 12.1828 170.741 11.8608 169.586 11.8608C168.402 11.8608 167.417 12.1828 166.631 12.8267C165.854 13.4706 165.272 14.3371 164.884 15.4261C164.505 16.5057 164.316 17.7131 164.316 19.0483C164.316 20.374 164.505 21.5767 164.884 22.6562C165.272 23.7358 165.854 24.5975 166.631 25.2415C167.417 25.8759 168.402 26.1932 169.586 26.1932ZM181.535 29.8864L189.589 18.6221L181.606 8.06817H187.544L193.751 16.8608H194.973V8.06817H200.115V16.8608H201.308L207.515 8.06817H213.453L205.513 18.6221L213.524 29.8864H207.459L201.251 21.0795H200.115V29.8864H194.973V21.0795H193.836L187.601 29.8864H181.535ZM222.97 30.3267C221.587 30.3267 220.342 30.0805 219.234 29.5881C218.136 29.0862 217.265 28.3475 216.621 27.3721C215.986 26.3968 215.669 25.1941 215.669 23.7642C215.669 22.5331 215.896 21.5151 216.351 20.7102C216.805 19.9053 217.426 19.2614 218.212 18.7784C218.998 18.2954 219.883 17.9309 220.868 17.6846C221.862 17.429 222.89 17.2443 223.95 17.1307C225.229 16.9981 226.266 16.8797 227.061 16.7756C227.856 16.6619 228.434 16.4915 228.794 16.2642C229.163 16.0275 229.348 15.6629 229.348 15.1704V15.0852C229.348 14.0151 229.031 13.1865 228.396 12.5994C227.762 12.0123 226.848 11.7187 225.655 11.7187C224.395 11.7187 223.396 11.9934 222.658 12.5426C221.928 13.0918 221.436 13.7405 221.18 14.4886L216.379 13.8068C216.758 12.481 217.383 11.3731 218.254 10.4829C219.125 9.58332 220.191 8.91097 221.45 8.4659C222.71 8.01135 224.102 7.78408 225.626 7.78408C226.677 7.78408 227.724 7.90719 228.766 8.1534C229.807 8.39961 230.759 8.80681 231.621 9.37499C232.482 9.9337 233.174 10.696 233.694 11.6619C234.225 12.6278 234.49 13.8352 234.49 15.2841V29.8864H229.547V26.8892H229.376C229.064 27.4953 228.623 28.0634 228.055 28.5937C227.497 29.1146 226.791 29.536 225.939 29.8579C225.096 30.1704 224.106 30.3267 222.97 30.3267ZM224.305 26.5483C225.337 26.5483 226.232 26.3447 226.99 25.9375C227.748 25.5208 228.33 24.9716 228.737 24.2898C229.154 23.6079 229.362 22.8646 229.362 22.0596V19.4886C229.201 19.6212 228.927 19.7443 228.538 19.8579C228.159 19.9716 227.733 20.071 227.26 20.1562C226.786 20.2415 226.318 20.3172 225.854 20.3835C225.39 20.4498 224.987 20.5066 224.646 20.554C223.879 20.6581 223.193 20.8286 222.587 21.0653C221.98 21.3021 221.502 21.6335 221.152 22.0596C220.802 22.4763 220.626 23.0161 220.626 23.679C220.626 24.6259 220.972 25.3409 221.663 25.8239C222.355 26.3068 223.235 26.5483 224.305 26.5483ZM237.555 29.8864L237.526 25.6534H238.279C238.847 25.6534 239.326 25.5256 239.714 25.2699C240.102 25.0142 240.424 24.5881 240.68 23.9915C240.935 23.3854 241.134 22.571 241.276 21.5483C241.418 20.5256 241.518 19.2519 241.575 17.7273L241.958 8.06817H257.867V29.8864H252.896V12.2869H246.631L246.291 19.3182C246.205 21.1364 246.002 22.7131 245.68 24.0483C245.367 25.374 244.922 26.4678 244.344 27.3295C243.776 28.1913 243.061 28.8352 242.2 29.2614C241.338 29.678 240.32 29.8864 239.146 29.8864H237.555ZM271.962 30.3125C269.831 30.3125 267.985 29.8437 266.422 28.9062C264.86 27.9687 263.647 26.6572 262.786 24.9716C261.933 23.286 261.507 21.3163 261.507 19.0625C261.507 16.8087 261.933 14.8343 262.786 13.1392C263.647 11.4441 264.86 10.1278 266.422 9.19033C267.985 8.25283 269.831 7.78408 271.962 7.78408C274.093 7.78408 275.939 8.25283 277.502 9.19033C279.064 10.1278 280.271 11.4441 281.124 13.1392C281.986 14.8343 282.416 16.8087 282.416 19.0625C282.416 21.3163 281.986 23.286 281.124 24.9716C280.271 26.6572 279.064 27.9687 277.502 28.9062C275.939 29.8437 274.093 30.3125 271.962 30.3125ZM271.99 26.1932C273.146 26.1932 274.111 25.8759 274.888 25.2415C275.664 24.5975 276.242 23.7358 276.621 22.6562C277.009 21.5767 277.203 20.374 277.203 19.0483C277.203 17.7131 277.009 16.5057 276.621 15.4261C276.242 14.3371 275.664 13.4706 274.888 12.8267C274.111 12.1828 273.146 11.8608 271.99 11.8608C270.807 11.8608 269.822 12.1828 269.036 12.8267C268.259 13.4706 267.677 14.3371 267.289 15.4261C266.91 16.5057 266.72 17.7131 266.72 19.0483C266.72 20.374 266.91 21.5767 267.289 22.6562C267.677 23.7358 268.259 24.5975 269.036 25.2415C269.822 25.8759 270.807 26.1932 271.99 26.1932ZM286.181 29.8864V8.06817H295.343C297.928 8.06817 299.969 8.58427 301.465 9.61647C302.97 10.6487 303.723 12.0881 303.723 13.9346C303.723 15.1562 303.297 16.1553 302.445 16.9318C301.602 17.6989 300.452 18.215 298.993 18.4801C300.139 18.5748 301.143 18.8636 302.005 19.3466C302.876 19.8295 303.558 20.464 304.05 21.25C304.542 22.036 304.789 22.9403 304.789 23.9631C304.789 25.1657 304.471 26.2121 303.837 27.1023C303.212 27.9829 302.298 28.6695 301.095 29.1619C299.902 29.6449 298.453 29.8864 296.749 29.8864H286.181ZM290.996 25.8381H296.749C297.696 25.8381 298.439 25.6155 298.979 25.1704C299.519 24.7159 299.789 24.1004 299.789 23.3239C299.789 22.4242 299.519 21.7187 298.979 21.2074C298.439 20.6865 297.696 20.4261 296.749 20.4261H290.996V25.8381ZM290.996 17.1023H295.442C296.143 17.1023 296.744 17.0028 297.246 16.804C297.748 16.5956 298.131 16.3068 298.397 15.9375C298.662 15.5587 298.794 15.1089 298.794 14.5881C298.794 13.84 298.487 13.2528 297.871 12.8267C297.265 12.4006 296.422 12.1875 295.343 12.1875H290.996V17.1023ZM314.711 30.3267C313.328 30.3267 312.083 30.0805 310.975 29.5881C309.876 29.0862 309.005 28.3475 308.361 27.3721C307.727 26.3968 307.41 25.1941 307.41 23.7642C307.41 22.5331 307.637 21.5151 308.091 20.7102C308.546 19.9053 309.166 19.2614 309.952 18.7784C310.738 18.2954 311.624 17.9309 312.608 17.6846C313.603 17.429 314.63 17.2443 315.691 17.1307C316.969 16.9981 318.006 16.8797 318.802 16.7756C319.597 16.6619 320.175 16.4915 320.535 16.2642C320.904 16.0275 321.089 15.6629 321.089 15.1704V15.0852C321.089 14.0151 320.771 13.1865 320.137 12.5994C319.502 12.0123 318.589 11.7187 317.395 11.7187C316.136 11.7187 315.137 11.9934 314.398 12.5426C313.669 13.0918 313.177 13.7405 312.921 14.4886L308.12 13.8068C308.499 12.481 309.124 11.3731 309.995 10.4829C310.866 9.58332 311.931 8.91097 313.191 8.4659C314.45 8.01135 315.842 7.78408 317.367 7.78408C318.418 7.78408 319.464 7.90719 320.506 8.1534C321.548 8.39961 322.5 8.80681 323.361 9.37499C324.223 9.9337 324.914 10.696 325.435 11.6619C325.965 12.6278 326.231 13.8352 326.231 15.2841V29.8864H321.287V26.8892H321.117C320.804 27.4953 320.364 28.0634 319.796 28.5937C319.237 29.1146 318.532 29.536 317.679 29.8579C316.837 30.1704 315.847 30.3267 314.711 30.3267ZM316.046 26.5483C317.078 26.5483 317.973 26.3447 318.731 25.9375C319.488 25.5208 320.071 24.9716 320.478 24.2898C320.894 23.6079 321.103 22.8646 321.103 22.0596V19.4886C320.942 19.6212 320.667 19.7443 320.279 19.8579C319.9 19.9716 319.474 20.071 319 20.1562C318.527 20.2415 318.058 20.3172 317.594 20.3835C317.13 20.4498 316.728 20.5066 316.387 20.554C315.62 20.6581 314.933 20.8286 314.327 21.0653C313.721 21.3021 313.243 21.6335 312.892 22.0596C312.542 22.4763 312.367 23.0161 312.367 23.679C312.367 24.6259 312.713 25.3409 313.404 25.8239C314.095 26.3068 314.976 26.5483 316.046 26.5483ZM328.358 12.2869V8.06817H347.449V12.2869H340.389V29.8864H335.418V12.2869H328.358ZM354.423 15.1704H360.858C363.642 15.1704 365.796 15.8475 367.321 17.2017C368.846 18.5559 369.613 20.3314 369.622 22.5284C369.613 23.9583 369.262 25.2273 368.571 26.3352C367.889 27.4432 366.895 28.3144 365.588 28.9489C364.291 29.5739 362.714 29.8864 360.858 29.8864H350.943V8.06817H355.901V25.6676H360.858C361.975 25.6676 362.894 25.3835 363.614 24.8153C364.333 24.2377 364.693 23.499 364.693 22.5994C364.693 21.6525 364.333 20.8807 363.614 20.2841C362.894 19.6875 361.975 19.3892 360.858 19.3892H354.423V15.1704ZM379.722 0.795443L379.253 21.3352H374.679L374.225 0.795443H379.722ZM376.966 30.1989C376.104 30.1989 375.366 29.8958 374.75 29.2898C374.144 28.6837 373.841 27.9451 373.841 27.0739C373.841 26.2216 374.144 25.4924 374.75 24.8864C375.366 24.2803 376.104 23.9773 376.966 23.9773C377.809 23.9773 378.538 24.2803 379.154 24.8864C379.779 25.4924 380.091 26.2216 380.091 27.0739C380.091 27.6515 379.944 28.1771 379.651 28.6506C379.367 29.124 378.988 29.5028 378.514 29.7869C378.05 30.0615 377.534 30.1989 376.966 30.1989Z" fill="#232323"/>
</g>
<defs>
<filter id="filter0_i_1046_67" x="0" y="0" width="380.091" height="38.0682" filterUnits="userSpaceOnUse" color-interpolation-filters="sRGB">
<feFlood flood-opacity="0" result="BackgroundImageFix"/>
<feBlend mode="normal" in="SourceGraphic" in2="BackgroundImageFix" result="shape"/>
<feColorMatrix in="SourceAlpha" type="matrix" values="0 0 0 0 0 0 0 0 0 0 0 0 0 0 0 0 0 0 127 0" result="hardAlpha"/>
<feOffset dy="-2"/>
<feComposite in2="hardAlpha" operator="arithmetic" k2="-1" k3="1"/>
<feColorMatrix type="matrix" values="0 0 0 0 1 0 0 0 0 1 0 0 0 0 1 0 0 0 0.12 0"/>
<feBlend mode="normal" in2="shape" result="effect1_innerShadow_1046_67"/>
</filter>
</defs>
</svg>
