

<svg xmlns="http://www.w3.org/2000/svg"
     width="24"
     height="24"
     viewBox="0 0 200 220"
     fill="#515161">

<path d="M40 195 l-23 -25 21 0 c18 0 22 -6 22 -30 0 -16 5 -30 10 -30 6 0 10
14 10 30 0 24 4 30 22 30 l21 0 -23 25 c-13 14 -26 25 -30 25 -4 0 -17 -11
-30 -25z"/>
<path d="M160 200 c0 -5 5 -10 10 -10 6 0 10 5 10 10 0 6 -4 10 -10 10 -5 0
-10 -4 -10 -10z"/>
<path d="M160 160 c0 -5 5 -10 10 -10 6 0 10 5 10 10 0 6 -4 10 -10 10 -5 0
-10 -4 -10 -10z"/>
<path d="M160 101 c0 -17 -6 -31 -14 -33 -12 -2 -11 -8 5 -27 l19 -23 19 23
c16 19 17 25 5 27 -8 2 -14 16 -14 33 0 16 -4 29 -10 29 -5 0 -10 -13 -10 -29z"/>
<path d="M60 80 c0 -5 5 -10 10 -10 6 0 10 5 10 10 0 6 -4 10 -10 10 -5 0 -10
-4 -10 -10z"/>
<path d="M60 40 c0 -5 5 -10 10 -10 6 0 10 5 10 10 0 6 -4 10 -10 10 -5 0 -10
-4 -10 -10z"/>

</svg>

